<mxfile host="app.diagrams.net" agent="Mozilla/5.0 (Windows NT 10.0; Win64; x64) AppleWebKit/537.36 (KHTML, like Gecko) Chrome/127.0.0.0 Safari/537.36 Edg/127.0.0.0" version="24.7.6">
  <diagram name="Page-1" id="-a0-zAkRaLJkd7rUqVzm">
    <mxGraphModel dx="1678" dy="2050" grid="1" gridSize="10" guides="1" tooltips="1" connect="1" arrows="1" fold="1" page="1" pageScale="1" pageWidth="1527" pageHeight="1169" math="0" shadow="0">
      <root>
        <mxCell id="0" />
        <mxCell id="1" parent="0" />
        <mxCell id="X-31tRASMu3qVLpS4dHG-3" value="" style="edgeStyle=orthogonalEdgeStyle;rounded=0;orthogonalLoop=1;jettySize=auto;html=1;" parent="1" source="X-31tRASMu3qVLpS4dHG-1" target="X-31tRASMu3qVLpS4dHG-2" edge="1">
          <mxGeometry relative="1" as="geometry" />
        </mxCell>
        <mxCell id="X-31tRASMu3qVLpS4dHG-1" value="5h00 Demarrage verification dispo" style="rounded=1;whiteSpace=wrap;html=1;" parent="1" vertex="1">
          <mxGeometry x="420" y="-310" width="120" height="60" as="geometry" />
        </mxCell>
        <mxCell id="X-31tRASMu3qVLpS4dHG-5" value="" style="edgeStyle=orthogonalEdgeStyle;rounded=0;orthogonalLoop=1;jettySize=auto;html=1;" parent="1" source="X-31tRASMu3qVLpS4dHG-2" edge="1">
          <mxGeometry relative="1" as="geometry">
            <mxPoint x="480" y="-60" as="targetPoint" />
          </mxGeometry>
        </mxCell>
        <mxCell id="X-31tRASMu3qVLpS4dHG-2" value="Si OUI" style="whiteSpace=wrap;html=1;rounded=1;" parent="1" vertex="1">
          <mxGeometry x="420" y="-180" width="120" height="60" as="geometry" />
        </mxCell>
        <mxCell id="X-31tRASMu3qVLpS4dHG-12" value="" style="edgeStyle=orthogonalEdgeStyle;rounded=0;orthogonalLoop=1;jettySize=auto;html=1;" parent="1" target="X-31tRASMu3qVLpS4dHG-11" edge="1">
          <mxGeometry relative="1" as="geometry">
            <mxPoint x="480" as="sourcePoint" />
          </mxGeometry>
        </mxCell>
        <mxCell id="X-31tRASMu3qVLpS4dHG-7" style="edgeStyle=orthogonalEdgeStyle;rounded=0;orthogonalLoop=1;jettySize=auto;html=1;exitX=0.5;exitY=1;exitDx=0;exitDy=0;entryX=0.5;entryY=0;entryDx=0;entryDy=0;" parent="1" source="X-31tRASMu3qVLpS4dHG-1" target="X-31tRASMu3qVLpS4dHG-6" edge="1">
          <mxGeometry relative="1" as="geometry" />
        </mxCell>
        <mxCell id="X-31tRASMu3qVLpS4dHG-8" style="edgeStyle=orthogonalEdgeStyle;rounded=0;orthogonalLoop=1;jettySize=auto;html=1;exitX=1;exitY=0.5;exitDx=0;exitDy=0;entryX=1;entryY=0.5;entryDx=0;entryDy=0;" parent="1" source="X-31tRASMu3qVLpS4dHG-6" target="X-31tRASMu3qVLpS4dHG-1" edge="1">
          <mxGeometry relative="1" as="geometry" />
        </mxCell>
        <mxCell id="X-31tRASMu3qVLpS4dHG-6" value="Si non" style="rounded=1;whiteSpace=wrap;html=1;" parent="1" vertex="1">
          <mxGeometry x="620" y="-210" width="120" height="60" as="geometry" />
        </mxCell>
        <mxCell id="X-31tRASMu3qVLpS4dHG-10" style="edgeStyle=orthogonalEdgeStyle;rounded=0;orthogonalLoop=1;jettySize=auto;html=1;" parent="1" source="X-31tRASMu3qVLpS4dHG-9" edge="1">
          <mxGeometry relative="1" as="geometry">
            <mxPoint x="760" y="-250" as="targetPoint" />
          </mxGeometry>
        </mxCell>
        <mxCell id="X-31tRASMu3qVLpS4dHG-9" value="+15 min" style="rounded=0;whiteSpace=wrap;html=1;" parent="1" vertex="1">
          <mxGeometry x="800" y="-260" width="70" height="20" as="geometry" />
        </mxCell>
        <mxCell id="X-31tRASMu3qVLpS4dHG-11" value="&lt;span dir=&quot;ltr&quot; class=&quot;ui-provider a b c d e f g h i j k l m n o p q r s t u v w x y z ab ac ae af ag ah ai aj ak&quot;&gt;Q_SUIVI_ROT_REC_IMX&lt;/span&gt;" style="rounded=1;whiteSpace=wrap;html=1;fillColor=#d5e8d4;strokeColor=#82b366;" parent="1" vertex="1">
          <mxGeometry x="550" y="40" width="180" height="50" as="geometry" />
        </mxCell>
        <mxCell id="X-31tRASMu3qVLpS4dHG-14" style="edgeStyle=orthogonalEdgeStyle;rounded=0;orthogonalLoop=1;jettySize=auto;html=1;" parent="1" source="X-31tRASMu3qVLpS4dHG-13" edge="1">
          <mxGeometry relative="1" as="geometry">
            <mxPoint x="480" y="30" as="targetPoint" />
            <Array as="points">
              <mxPoint x="395" y="35" />
              <mxPoint x="395" y="31" />
            </Array>
          </mxGeometry>
        </mxCell>
        <mxCell id="X-31tRASMu3qVLpS4dHG-13" value="entre 1h30 et 2h00" style="rounded=0;whiteSpace=wrap;html=1;" parent="1" vertex="1">
          <mxGeometry x="250" y="20" width="60" height="30" as="geometry" />
        </mxCell>
        <mxCell id="X-31tRASMu3qVLpS4dHG-27" value="Super Suivi Issaka" style="whiteSpace=wrap;html=1;rounded=1;arcSize=33;" parent="1" vertex="1">
          <mxGeometry x="1000" y="460" width="120" height="60" as="geometry" />
        </mxCell>
        <mxCell id="QnKmiuLsf_0pgqNiHcF8-60" style="edgeStyle=orthogonalEdgeStyle;rounded=0;orthogonalLoop=1;jettySize=auto;html=1;" parent="1" source="X-31tRASMu3qVLpS4dHG-30" edge="1">
          <mxGeometry relative="1" as="geometry">
            <mxPoint x="470" y="315" as="targetPoint" />
          </mxGeometry>
        </mxCell>
        <mxCell id="X-31tRASMu3qVLpS4dHG-30" value="+30 min" style="rounded=0;whiteSpace=wrap;html=1;" parent="1" vertex="1">
          <mxGeometry x="380" y="305" width="50" height="20" as="geometry" />
        </mxCell>
        <mxCell id="X-31tRASMu3qVLpS4dHG-39" style="edgeStyle=orthogonalEdgeStyle;rounded=0;orthogonalLoop=1;jettySize=auto;html=1;" parent="1" source="X-31tRASMu3qVLpS4dHG-33" edge="1">
          <mxGeometry relative="1" as="geometry">
            <mxPoint x="290" y="310" as="targetPoint" />
          </mxGeometry>
        </mxCell>
        <mxCell id="X-31tRASMu3qVLpS4dHG-33" value="+5 min" style="rounded=0;whiteSpace=wrap;html=1;" parent="1" vertex="1">
          <mxGeometry x="110" y="300" width="60" height="20" as="geometry" />
        </mxCell>
        <mxCell id="QnKmiuLsf_0pgqNiHcF8-50" style="edgeStyle=orthogonalEdgeStyle;rounded=0;orthogonalLoop=1;jettySize=auto;html=1;" parent="1" source="QnKmiuLsf_0pgqNiHcF8-1" edge="1">
          <mxGeometry relative="1" as="geometry">
            <mxPoint x="480" y="140" as="targetPoint" />
          </mxGeometry>
        </mxCell>
        <mxCell id="QnKmiuLsf_0pgqNiHcF8-1" value="Creation_Rotation_RC" style="ellipse;whiteSpace=wrap;html=1;fillColor=#dae8fc;strokeColor=#6c8ebf;" parent="1" vertex="1">
          <mxGeometry x="395" y="-70" width="170" height="90" as="geometry" />
        </mxCell>
        <mxCell id="QnKmiuLsf_0pgqNiHcF8-4" value="" style="edgeStyle=orthogonalEdgeStyle;rounded=0;orthogonalLoop=1;jettySize=auto;html=1;" parent="1" source="QnKmiuLsf_0pgqNiHcF8-2" target="QnKmiuLsf_0pgqNiHcF8-3" edge="1">
          <mxGeometry relative="1" as="geometry" />
        </mxCell>
        <mxCell id="QnKmiuLsf_0pgqNiHcF8-52" style="edgeStyle=orthogonalEdgeStyle;rounded=0;orthogonalLoop=1;jettySize=auto;html=1;exitX=0.5;exitY=0;exitDx=0;exitDy=0;entryX=0.5;entryY=0;entryDx=0;entryDy=0;" parent="1" target="QnKmiuLsf_0pgqNiHcF8-2" edge="1">
          <mxGeometry relative="1" as="geometry">
            <mxPoint x="289.7058823529412" y="140" as="sourcePoint" />
          </mxGeometry>
        </mxCell>
        <mxCell id="QnKmiuLsf_0pgqNiHcF8-2" value="Bucket" style="ellipse;whiteSpace=wrap;html=1;fillColor=#dae8fc;strokeColor=#6c8ebf;" parent="1" vertex="1">
          <mxGeometry x="230" y="200" width="120" height="80" as="geometry" />
        </mxCell>
        <mxCell id="QnKmiuLsf_0pgqNiHcF8-3" value="&lt;span style=&quot;font-size:11.0pt;font-family:&amp;quot;Calibri&amp;quot;,sans-serif;&lt;br/&gt;mso-ascii-theme-font:minor-latin;mso-fareast-font-family:Calibri;mso-fareast-theme-font:&lt;br/&gt;minor-latin;mso-hansi-theme-font:minor-latin;mso-bidi-font-family:&amp;quot;Times New Roman&amp;quot;;&lt;br/&gt;mso-bidi-theme-font:minor-bidi;mso-ansi-language:FR;mso-fareast-language:EN-US;&lt;br/&gt;mso-bidi-language:AR-SA&quot;&gt;Q_SUIVI_BUCKET&lt;br&gt;&lt;/span&gt;&lt;span style=&quot;font-size:11.0pt;font-family:&amp;quot;Calibri&amp;quot;,sans-serif;&lt;br/&gt;mso-ascii-theme-font:minor-latin;mso-fareast-font-family:Calibri;mso-fareast-theme-font:&lt;br/&gt;minor-latin;mso-hansi-theme-font:minor-latin;mso-bidi-font-family:&amp;quot;Times New Roman&amp;quot;;&lt;br/&gt;mso-bidi-theme-font:minor-bidi;mso-ansi-language:FR;mso-fareast-language:EN-US;&lt;br/&gt;mso-bidi-language:AR-SA&quot;&gt;Q_SUIVI_PROMESSE&lt;/span&gt;&lt;span style=&quot;font-size:11.0pt;font-family:&amp;quot;Calibri&amp;quot;,sans-serif;&lt;br/&gt;mso-ascii-theme-font:minor-latin;mso-fareast-font-family:Calibri;mso-fareast-theme-font:&lt;br/&gt;minor-latin;mso-hansi-theme-font:minor-latin;mso-bidi-font-family:&amp;quot;Times New Roman&amp;quot;;&lt;br/&gt;mso-bidi-theme-font:minor-bidi;mso-ansi-language:FR;mso-fareast-language:EN-US;&lt;br/&gt;mso-bidi-language:AR-SA&quot;&gt;&lt;br&gt;&lt;/span&gt;" style="rounded=1;whiteSpace=wrap;html=1;fillColor=#d5e8d4;strokeColor=#82b366;" parent="1" vertex="1">
          <mxGeometry x="225" y="380" width="130" height="60" as="geometry" />
        </mxCell>
        <mxCell id="QnKmiuLsf_0pgqNiHcF8-31" style="edgeStyle=orthogonalEdgeStyle;rounded=0;orthogonalLoop=1;jettySize=auto;html=1;entryX=0.5;entryY=0;entryDx=0;entryDy=0;" parent="1" source="QnKmiuLsf_0pgqNiHcF8-5" target="QnKmiuLsf_0pgqNiHcF8-8" edge="1">
          <mxGeometry relative="1" as="geometry" />
        </mxCell>
        <mxCell id="QnKmiuLsf_0pgqNiHcF8-53" style="edgeStyle=orthogonalEdgeStyle;rounded=0;orthogonalLoop=1;jettySize=auto;html=1;exitX=0.5;exitY=0;exitDx=0;exitDy=0;entryX=0.5;entryY=0;entryDx=0;entryDy=0;" parent="1" target="QnKmiuLsf_0pgqNiHcF8-5" edge="1">
          <mxGeometry relative="1" as="geometry">
            <mxPoint x="475.5882352941178" y="140" as="sourcePoint" />
          </mxGeometry>
        </mxCell>
        <mxCell id="QnKmiuLsf_0pgqNiHcF8-5" value="&lt;p class=&quot;MsoListParagraph&quot;&gt;ADR_UNIF Suivi_Quotidien&lt;br&gt;NewVersion&amp;nbsp;&lt;br&gt;&lt;/p&gt;" style="ellipse;whiteSpace=wrap;html=1;fillColor=#dae8fc;strokeColor=#6c8ebf;" parent="1" vertex="1">
          <mxGeometry x="420" y="200" width="110" height="80" as="geometry" />
        </mxCell>
        <mxCell id="QnKmiuLsf_0pgqNiHcF8-8" value="Q_ADR_SYNTH_CDR_UNIF&lt;div&gt;Q_ADR_SYNTH_ENC_UNIF&lt;br&gt;&lt;/div&gt;&lt;div&gt;Q_ADR_SYNTH_PROM_UNIF&lt;br&gt;&lt;/div&gt;" style="rounded=1;whiteSpace=wrap;html=1;fillColor=#d5e8d4;strokeColor=#82b366;" parent="1" vertex="1">
          <mxGeometry x="445" y="470" width="180" height="70" as="geometry" />
        </mxCell>
        <mxCell id="QnKmiuLsf_0pgqNiHcF8-17" value="Batch periodique 10h45" style="rounded=0;whiteSpace=wrap;html=1;" parent="1" vertex="1">
          <mxGeometry x="885" y="-40" width="120" height="60" as="geometry" />
        </mxCell>
        <mxCell id="QnKmiuLsf_0pgqNiHcF8-27" value="" style="edgeStyle=orthogonalEdgeStyle;rounded=0;orthogonalLoop=1;jettySize=auto;html=1;" parent="1" source="QnKmiuLsf_0pgqNiHcF8-19" target="QnKmiuLsf_0pgqNiHcF8-26" edge="1">
          <mxGeometry relative="1" as="geometry" />
        </mxCell>
        <mxCell id="QnKmiuLsf_0pgqNiHcF8-44" style="edgeStyle=orthogonalEdgeStyle;rounded=0;orthogonalLoop=1;jettySize=auto;html=1;exitX=0.5;exitY=1;exitDx=0;exitDy=0;entryX=0.5;entryY=0;entryDx=0;entryDy=0;" parent="1" source="QnKmiuLsf_0pgqNiHcF8-17" target="QnKmiuLsf_0pgqNiHcF8-19" edge="1">
          <mxGeometry relative="1" as="geometry" />
        </mxCell>
        <mxCell id="QnKmiuLsf_0pgqNiHcF8-19" value="&lt;span style=&quot;text-wrap: nowrap;&quot;&gt;APC_SUIVI_QUOTIDIEN_RECCIBLE&lt;br&gt;&lt;br&gt;&lt;/span&gt;" style="ellipse;whiteSpace=wrap;html=1;fillColor=#dae8fc;strokeColor=#6c8ebf;" parent="1" vertex="1">
          <mxGeometry x="950" y="70" width="220" height="90" as="geometry" />
        </mxCell>
        <mxCell id="QnKmiuLsf_0pgqNiHcF8-25" value="" style="edgeStyle=orthogonalEdgeStyle;rounded=0;orthogonalLoop=1;jettySize=auto;html=1;" parent="1" source="QnKmiuLsf_0pgqNiHcF8-20" target="QnKmiuLsf_0pgqNiHcF8-24" edge="1">
          <mxGeometry relative="1" as="geometry" />
        </mxCell>
        <mxCell id="QnKmiuLsf_0pgqNiHcF8-45" style="edgeStyle=orthogonalEdgeStyle;rounded=0;orthogonalLoop=1;jettySize=auto;html=1;exitX=0.5;exitY=1;exitDx=0;exitDy=0;entryX=0.5;entryY=0;entryDx=0;entryDy=0;" parent="1" source="QnKmiuLsf_0pgqNiHcF8-17" target="QnKmiuLsf_0pgqNiHcF8-20" edge="1">
          <mxGeometry relative="1" as="geometry" />
        </mxCell>
        <mxCell id="QnKmiuLsf_0pgqNiHcF8-20" value="&lt;span style=&quot;text-wrap: nowrap;&quot;&gt;ADR_ACC_STT_RTD_PAL&lt;/span&gt;" style="ellipse;whiteSpace=wrap;html=1;fillColor=#dae8fc;strokeColor=#6c8ebf;" parent="1" vertex="1">
          <mxGeometry x="730" y="75" width="190" height="80" as="geometry" />
        </mxCell>
        <mxCell id="QnKmiuLsf_0pgqNiHcF8-24" value="ACC_STT_RTD_PAL&lt;br&gt;ACC_STT_PAL_UNIF" style="rounded=1;whiteSpace=wrap;html=1;fillColor=#d5e8d4;strokeColor=#82b366;" parent="1" vertex="1">
          <mxGeometry x="765" y="245" width="120" height="60" as="geometry" />
        </mxCell>
        <mxCell id="QnKmiuLsf_0pgqNiHcF8-30" style="edgeStyle=orthogonalEdgeStyle;rounded=0;orthogonalLoop=1;jettySize=auto;html=1;entryX=0.5;entryY=0;entryDx=0;entryDy=0;" parent="1" source="QnKmiuLsf_0pgqNiHcF8-26" target="X-31tRASMu3qVLpS4dHG-27" edge="1">
          <mxGeometry relative="1" as="geometry" />
        </mxCell>
        <mxCell id="QnKmiuLsf_0pgqNiHcF8-26" value="Q_SUIVI_APC_Impaye&lt;br&gt;Q_APC_SUIVI_UNIF_RECCIBLE&lt;br&gt;Q_APC_SUIVI_RECCIBLE" style="rounded=1;whiteSpace=wrap;html=1;fillColor=#d5e8d4;strokeColor=#82b366;" parent="1" vertex="1">
          <mxGeometry x="965" y="260" width="190" height="60" as="geometry" />
        </mxCell>
        <mxCell id="QnKmiuLsf_0pgqNiHcF8-38" style="edgeStyle=orthogonalEdgeStyle;rounded=0;orthogonalLoop=1;jettySize=auto;html=1;" parent="1" source="QnKmiuLsf_0pgqNiHcF8-34" edge="1">
          <mxGeometry relative="1" as="geometry">
            <mxPoint x="820" y="190" as="targetPoint" />
          </mxGeometry>
        </mxCell>
        <mxCell id="QnKmiuLsf_0pgqNiHcF8-34" value="+5 min" style="rounded=0;whiteSpace=wrap;html=1;" parent="1" vertex="1">
          <mxGeometry x="880" y="180" width="60" height="20" as="geometry" />
        </mxCell>
        <mxCell id="QnKmiuLsf_0pgqNiHcF8-36" style="edgeStyle=orthogonalEdgeStyle;rounded=0;orthogonalLoop=1;jettySize=auto;html=1;" parent="1" source="QnKmiuLsf_0pgqNiHcF8-35" edge="1">
          <mxGeometry relative="1" as="geometry">
            <mxPoint x="1060" y="190" as="targetPoint" />
          </mxGeometry>
        </mxCell>
        <mxCell id="QnKmiuLsf_0pgqNiHcF8-35" value="+5 min" style="rounded=0;whiteSpace=wrap;html=1;" parent="1" vertex="1">
          <mxGeometry x="1150" y="180" width="60" height="20" as="geometry" />
        </mxCell>
        <mxCell id="QnKmiuLsf_0pgqNiHcF8-48" style="edgeStyle=orthogonalEdgeStyle;rounded=0;orthogonalLoop=1;jettySize=auto;html=1;exitX=0.5;exitY=1;exitDx=0;exitDy=0;entryX=0.25;entryY=0;entryDx=0;entryDy=0;" parent="1" source="QnKmiuLsf_0pgqNiHcF8-39" target="QnKmiuLsf_0pgqNiHcF8-42" edge="1">
          <mxGeometry relative="1" as="geometry" />
        </mxCell>
        <mxCell id="QnKmiuLsf_0pgqNiHcF8-54" style="edgeStyle=orthogonalEdgeStyle;rounded=0;orthogonalLoop=1;jettySize=auto;html=1;exitX=0.5;exitY=0;exitDx=0;exitDy=0;entryX=0.5;entryY=0;entryDx=0;entryDy=0;" parent="1" target="QnKmiuLsf_0pgqNiHcF8-39" edge="1">
          <mxGeometry relative="1" as="geometry">
            <mxPoint x="655.5882352941176" y="140" as="sourcePoint" />
          </mxGeometry>
        </mxCell>
        <mxCell id="QnKmiuLsf_0pgqNiHcF8-39" value="&lt;span style=&quot;background-color: initial; font-family: Calibri, sans-serif; font-size: 11pt;&quot;&gt;ADR_UNIF&lt;br&gt;Suivi_Quotidien NewVersion&lt;/span&gt;" style="ellipse;whiteSpace=wrap;html=1;fillColor=#dae8fc;strokeColor=#6c8ebf;" parent="1" vertex="1">
          <mxGeometry x="600" y="205" width="110" height="70" as="geometry" />
        </mxCell>
        <mxCell id="QnKmiuLsf_0pgqNiHcF8-42" value="Q_ADR_SYNTH_CDR&lt;br&gt;Q_ADR_SYNTH_GLB&lt;br&gt;Q_ADR_SYNTH_ENC&lt;br&gt;Q_ADR_SYNTH_PROM&lt;br&gt;Q_ADR_SYNTH_TPS_AGN" style="rounded=1;whiteSpace=wrap;html=1;fillColor=#d5e8d4;strokeColor=#82b366;" parent="1" vertex="1">
          <mxGeometry x="670" y="460" width="160" height="90" as="geometry" />
        </mxCell>
        <mxCell id="QnKmiuLsf_0pgqNiHcF8-46" value="CODE SAS" style="ellipse;whiteSpace=wrap;html=1;fillColor=#dae8fc;strokeColor=#6c8ebf;" parent="1" vertex="1">
          <mxGeometry x="200" y="-260" width="120" height="80" as="geometry" />
        </mxCell>
        <mxCell id="QnKmiuLsf_0pgqNiHcF8-47" value="SORTIE FICHIER" style="rounded=1;whiteSpace=wrap;html=1;fillColor=#d5e8d4;strokeColor=#82b366;" parent="1" vertex="1">
          <mxGeometry x="200" y="-160" width="120" height="60" as="geometry" />
        </mxCell>
        <mxCell id="QnKmiuLsf_0pgqNiHcF8-51" value="" style="endArrow=none;html=1;rounded=0;" parent="1" edge="1">
          <mxGeometry width="50" height="50" relative="1" as="geometry">
            <mxPoint x="270" y="140" as="sourcePoint" />
            <mxPoint x="670" y="140" as="targetPoint" />
          </mxGeometry>
        </mxCell>
        <mxCell id="QnKmiuLsf_0pgqNiHcF8-59" style="edgeStyle=orthogonalEdgeStyle;rounded=0;orthogonalLoop=1;jettySize=auto;html=1;" parent="1" source="QnKmiuLsf_0pgqNiHcF8-58" edge="1">
          <mxGeometry relative="1" as="geometry">
            <mxPoint x="650" y="315" as="targetPoint" />
          </mxGeometry>
        </mxCell>
        <mxCell id="QnKmiuLsf_0pgqNiHcF8-58" value="+30 min" style="rounded=0;whiteSpace=wrap;html=1;" parent="1" vertex="1">
          <mxGeometry x="690" y="305" width="60" height="20" as="geometry" />
        </mxCell>
        <mxCell id="QnKmiuLsf_0pgqNiHcF8-61" value="" style="edgeStyle=orthogonalEdgeStyle;rounded=0;orthogonalLoop=1;jettySize=auto;html=1;" parent="1" source="QnKmiuLsf_0pgqNiHcF8-62" target="QnKmiuLsf_0pgqNiHcF8-64" edge="1">
          <mxGeometry relative="1" as="geometry" />
        </mxCell>
        <mxCell id="QnKmiuLsf_0pgqNiHcF8-62" value="5h00 Controle donnee decisionnel dispo" style="rounded=1;whiteSpace=wrap;html=1;" parent="1" vertex="1">
          <mxGeometry x="410" y="600" width="120" height="60" as="geometry" />
        </mxCell>
        <mxCell id="QnKmiuLsf_0pgqNiHcF8-63" value="" style="edgeStyle=orthogonalEdgeStyle;rounded=0;orthogonalLoop=1;jettySize=auto;html=1;" parent="1" source="QnKmiuLsf_0pgqNiHcF8-64" edge="1">
          <mxGeometry relative="1" as="geometry">
            <mxPoint x="470" y="850" as="targetPoint" />
          </mxGeometry>
        </mxCell>
        <mxCell id="QnKmiuLsf_0pgqNiHcF8-64" value="Si OUI" style="whiteSpace=wrap;html=1;rounded=1;" parent="1" vertex="1">
          <mxGeometry x="410" y="730" width="120" height="60" as="geometry" />
        </mxCell>
        <mxCell id="QnKmiuLsf_0pgqNiHcF8-65" value="" style="edgeStyle=orthogonalEdgeStyle;rounded=0;orthogonalLoop=1;jettySize=auto;html=1;" parent="1" target="QnKmiuLsf_0pgqNiHcF8-71" edge="1">
          <mxGeometry relative="1" as="geometry">
            <mxPoint x="470" y="910" as="sourcePoint" />
          </mxGeometry>
        </mxCell>
        <mxCell id="QnKmiuLsf_0pgqNiHcF8-66" style="edgeStyle=orthogonalEdgeStyle;rounded=0;orthogonalLoop=1;jettySize=auto;html=1;exitX=0.5;exitY=1;exitDx=0;exitDy=0;entryX=0.5;entryY=0;entryDx=0;entryDy=0;" parent="1" source="QnKmiuLsf_0pgqNiHcF8-62" target="QnKmiuLsf_0pgqNiHcF8-68" edge="1">
          <mxGeometry relative="1" as="geometry" />
        </mxCell>
        <mxCell id="QnKmiuLsf_0pgqNiHcF8-67" style="edgeStyle=orthogonalEdgeStyle;rounded=0;orthogonalLoop=1;jettySize=auto;html=1;exitX=1;exitY=0.5;exitDx=0;exitDy=0;entryX=1;entryY=0.5;entryDx=0;entryDy=0;" parent="1" source="QnKmiuLsf_0pgqNiHcF8-68" target="QnKmiuLsf_0pgqNiHcF8-62" edge="1">
          <mxGeometry relative="1" as="geometry" />
        </mxCell>
        <mxCell id="QnKmiuLsf_0pgqNiHcF8-68" value="Si non" style="rounded=1;whiteSpace=wrap;html=1;" parent="1" vertex="1">
          <mxGeometry x="610" y="700" width="120" height="60" as="geometry" />
        </mxCell>
        <mxCell id="QnKmiuLsf_0pgqNiHcF8-69" style="edgeStyle=orthogonalEdgeStyle;rounded=0;orthogonalLoop=1;jettySize=auto;html=1;" parent="1" source="QnKmiuLsf_0pgqNiHcF8-70" edge="1">
          <mxGeometry relative="1" as="geometry">
            <mxPoint x="750" y="660" as="targetPoint" />
          </mxGeometry>
        </mxCell>
        <mxCell id="QnKmiuLsf_0pgqNiHcF8-70" value="+15 min" style="rounded=0;whiteSpace=wrap;html=1;" parent="1" vertex="1">
          <mxGeometry x="790" y="650" width="70" height="20" as="geometry" />
        </mxCell>
        <mxCell id="QnKmiuLsf_0pgqNiHcF8-71" value="&lt;span dir=&quot;ltr&quot; class=&quot;ui-provider a b c d e f g h i j k l m n o p q r s t u v w x y z ab ac ae af ag ah ai aj ak&quot;&gt;Q_SUIVI_ROT_REC_IMX&lt;/span&gt;" style="rounded=1;whiteSpace=wrap;html=1;fillColor=#d5e8d4;strokeColor=#82b366;" parent="1" vertex="1">
          <mxGeometry x="540" y="950" width="180" height="50" as="geometry" />
        </mxCell>
        <mxCell id="QnKmiuLsf_0pgqNiHcF8-72" style="edgeStyle=orthogonalEdgeStyle;rounded=0;orthogonalLoop=1;jettySize=auto;html=1;" parent="1" source="QnKmiuLsf_0pgqNiHcF8-73" edge="1">
          <mxGeometry relative="1" as="geometry">
            <mxPoint x="470" y="940" as="targetPoint" />
            <Array as="points">
              <mxPoint x="385" y="945" />
              <mxPoint x="385" y="941" />
            </Array>
          </mxGeometry>
        </mxCell>
        <mxCell id="QnKmiuLsf_0pgqNiHcF8-73" value="entre 1h30 et 2h00" style="rounded=0;whiteSpace=wrap;html=1;" parent="1" vertex="1">
          <mxGeometry x="240" y="930" width="60" height="30" as="geometry" />
        </mxCell>
        <mxCell id="QnKmiuLsf_0pgqNiHcF8-74" value="Super Suivi Issaka" style="whiteSpace=wrap;html=1;rounded=1;arcSize=33;" parent="1" vertex="1">
          <mxGeometry x="1360" y="1352.5" width="120" height="60" as="geometry" />
        </mxCell>
        <mxCell id="QnKmiuLsf_0pgqNiHcF8-75" style="edgeStyle=orthogonalEdgeStyle;rounded=0;orthogonalLoop=1;jettySize=auto;html=1;" parent="1" source="QnKmiuLsf_0pgqNiHcF8-76" edge="1">
          <mxGeometry relative="1" as="geometry">
            <mxPoint x="460" y="1225" as="targetPoint" />
          </mxGeometry>
        </mxCell>
        <mxCell id="QnKmiuLsf_0pgqNiHcF8-76" value="+30 min" style="rounded=0;whiteSpace=wrap;html=1;" parent="1" vertex="1">
          <mxGeometry x="370" y="1215" width="50" height="20" as="geometry" />
        </mxCell>
        <mxCell id="QnKmiuLsf_0pgqNiHcF8-77" style="edgeStyle=orthogonalEdgeStyle;rounded=0;orthogonalLoop=1;jettySize=auto;html=1;" parent="1" source="QnKmiuLsf_0pgqNiHcF8-78" edge="1">
          <mxGeometry relative="1" as="geometry">
            <mxPoint x="280" y="1220" as="targetPoint" />
          </mxGeometry>
        </mxCell>
        <mxCell id="QnKmiuLsf_0pgqNiHcF8-78" value="+5 min" style="rounded=0;whiteSpace=wrap;html=1;" parent="1" vertex="1">
          <mxGeometry x="100" y="1210" width="60" height="20" as="geometry" />
        </mxCell>
        <mxCell id="QnKmiuLsf_0pgqNiHcF8-79" style="edgeStyle=orthogonalEdgeStyle;rounded=0;orthogonalLoop=1;jettySize=auto;html=1;" parent="1" source="QnKmiuLsf_0pgqNiHcF8-80" edge="1">
          <mxGeometry relative="1" as="geometry">
            <mxPoint x="470" y="1050" as="targetPoint" />
          </mxGeometry>
        </mxCell>
        <mxCell id="8Lnr_tMbdvoqLlXHLRUx-69" style="edgeStyle=orthogonalEdgeStyle;rounded=0;orthogonalLoop=1;jettySize=auto;html=1;" edge="1" parent="1" source="QnKmiuLsf_0pgqNiHcF8-80" target="8Lnr_tMbdvoqLlXHLRUx-62">
          <mxGeometry relative="1" as="geometry" />
        </mxCell>
        <mxCell id="QnKmiuLsf_0pgqNiHcF8-80" value="Rotation recouvremment" style="ellipse;whiteSpace=wrap;html=1;fillColor=#dae8fc;strokeColor=#6c8ebf;" parent="1" vertex="1">
          <mxGeometry x="385" y="840" width="170" height="90" as="geometry" />
        </mxCell>
        <mxCell id="QnKmiuLsf_0pgqNiHcF8-81" value="" style="edgeStyle=orthogonalEdgeStyle;rounded=0;orthogonalLoop=1;jettySize=auto;html=1;" parent="1" source="QnKmiuLsf_0pgqNiHcF8-83" target="QnKmiuLsf_0pgqNiHcF8-84" edge="1">
          <mxGeometry relative="1" as="geometry" />
        </mxCell>
        <mxCell id="QnKmiuLsf_0pgqNiHcF8-82" style="edgeStyle=orthogonalEdgeStyle;rounded=0;orthogonalLoop=1;jettySize=auto;html=1;exitX=0.5;exitY=0;exitDx=0;exitDy=0;entryX=0.5;entryY=0;entryDx=0;entryDy=0;" parent="1" target="QnKmiuLsf_0pgqNiHcF8-83" edge="1">
          <mxGeometry relative="1" as="geometry">
            <mxPoint x="279.7058823529412" y="1050" as="sourcePoint" />
          </mxGeometry>
        </mxCell>
        <mxCell id="QnKmiuLsf_0pgqNiHcF8-83" value="Bucket" style="ellipse;whiteSpace=wrap;html=1;fillColor=#dae8fc;strokeColor=#6c8ebf;" parent="1" vertex="1">
          <mxGeometry x="220" y="1110" width="120" height="80" as="geometry" />
        </mxCell>
        <mxCell id="QnKmiuLsf_0pgqNiHcF8-84" value="&lt;font face=&quot;Calibri, sans-serif&quot;&gt;&lt;span style=&quot;font-size: 14.6667px;&quot;&gt;Suivi par bucket - stock AAAAMM&lt;/span&gt;&lt;/font&gt;" style="rounded=1;whiteSpace=wrap;html=1;fillColor=#d5e8d4;strokeColor=#82b366;" parent="1" vertex="1">
          <mxGeometry x="215" y="1290" width="130" height="60" as="geometry" />
        </mxCell>
        <mxCell id="QnKmiuLsf_0pgqNiHcF8-85" style="edgeStyle=orthogonalEdgeStyle;rounded=0;orthogonalLoop=1;jettySize=auto;html=1;entryX=0.5;entryY=0;entryDx=0;entryDy=0;" parent="1" source="QnKmiuLsf_0pgqNiHcF8-87" target="QnKmiuLsf_0pgqNiHcF8-88" edge="1">
          <mxGeometry relative="1" as="geometry" />
        </mxCell>
        <mxCell id="QnKmiuLsf_0pgqNiHcF8-86" style="edgeStyle=orthogonalEdgeStyle;rounded=0;orthogonalLoop=1;jettySize=auto;html=1;exitX=0.5;exitY=0;exitDx=0;exitDy=0;entryX=0.5;entryY=0;entryDx=0;entryDy=0;" parent="1" target="QnKmiuLsf_0pgqNiHcF8-87" edge="1">
          <mxGeometry relative="1" as="geometry">
            <mxPoint x="465.5882352941178" y="1050" as="sourcePoint" />
          </mxGeometry>
        </mxCell>
        <mxCell id="QnKmiuLsf_0pgqNiHcF8-87" value="&lt;p class=&quot;MsoListParagraph&quot;&gt;ADR OPERATIONNEL&lt;/p&gt;" style="ellipse;whiteSpace=wrap;html=1;fillColor=#dae8fc;strokeColor=#6c8ebf;" parent="1" vertex="1">
          <mxGeometry x="410" y="1110" width="110" height="80" as="geometry" />
        </mxCell>
        <mxCell id="QnKmiuLsf_0pgqNiHcF8-88" value="&lt;div&gt;ADR_Synthèse_RC_UNIF_V6_New_Version&lt;br&gt;&lt;/div&gt;" style="rounded=1;whiteSpace=wrap;html=1;fillColor=#d5e8d4;strokeColor=#82b366;" parent="1" vertex="1">
          <mxGeometry x="360" y="1380" width="255" height="70" as="geometry" />
        </mxCell>
        <mxCell id="QnKmiuLsf_0pgqNiHcF8-89" value="Batch periodique 10h45" style="rounded=0;whiteSpace=wrap;html=1;" parent="1" vertex="1">
          <mxGeometry x="1245" y="852.5" width="120" height="60" as="geometry" />
        </mxCell>
        <mxCell id="QnKmiuLsf_0pgqNiHcF8-90" value="" style="edgeStyle=orthogonalEdgeStyle;rounded=0;orthogonalLoop=1;jettySize=auto;html=1;" parent="1" source="QnKmiuLsf_0pgqNiHcF8-92" target="QnKmiuLsf_0pgqNiHcF8-98" edge="1">
          <mxGeometry relative="1" as="geometry" />
        </mxCell>
        <mxCell id="QnKmiuLsf_0pgqNiHcF8-91" style="edgeStyle=orthogonalEdgeStyle;rounded=0;orthogonalLoop=1;jettySize=auto;html=1;exitX=0.5;exitY=1;exitDx=0;exitDy=0;entryX=0.5;entryY=0;entryDx=0;entryDy=0;" parent="1" source="QnKmiuLsf_0pgqNiHcF8-89" target="QnKmiuLsf_0pgqNiHcF8-92" edge="1">
          <mxGeometry relative="1" as="geometry" />
        </mxCell>
        <mxCell id="QnKmiuLsf_0pgqNiHcF8-92" value="&lt;span style=&quot;text-wrap: nowrap;&quot;&gt;APC&lt;/span&gt;" style="ellipse;whiteSpace=wrap;html=1;fillColor=#dae8fc;strokeColor=#6c8ebf;" parent="1" vertex="1">
          <mxGeometry x="1310" y="962.5" width="220" height="90" as="geometry" />
        </mxCell>
        <mxCell id="QnKmiuLsf_0pgqNiHcF8-93" value="" style="edgeStyle=orthogonalEdgeStyle;rounded=0;orthogonalLoop=1;jettySize=auto;html=1;" parent="1" source="QnKmiuLsf_0pgqNiHcF8-95" target="QnKmiuLsf_0pgqNiHcF8-96" edge="1">
          <mxGeometry relative="1" as="geometry" />
        </mxCell>
        <mxCell id="QnKmiuLsf_0pgqNiHcF8-94" style="edgeStyle=orthogonalEdgeStyle;rounded=0;orthogonalLoop=1;jettySize=auto;html=1;exitX=0.5;exitY=1;exitDx=0;exitDy=0;entryX=0.5;entryY=0;entryDx=0;entryDy=0;" parent="1" source="QnKmiuLsf_0pgqNiHcF8-89" target="QnKmiuLsf_0pgqNiHcF8-95" edge="1">
          <mxGeometry relative="1" as="geometry" />
        </mxCell>
        <mxCell id="QnKmiuLsf_0pgqNiHcF8-95" value="&lt;span style=&quot;text-wrap: nowrap;&quot;&gt;ADR&lt;/span&gt;" style="ellipse;whiteSpace=wrap;html=1;fillColor=#dae8fc;strokeColor=#6c8ebf;" parent="1" vertex="1">
          <mxGeometry x="1090" y="967.5" width="190" height="80" as="geometry" />
        </mxCell>
        <mxCell id="QnKmiuLsf_0pgqNiHcF8-96" value="ACC_STT_RTD_PAL&lt;br&gt;ACC_STT_PAL_UNIF" style="rounded=1;whiteSpace=wrap;html=1;fillColor=#d5e8d4;strokeColor=#82b366;" parent="1" vertex="1">
          <mxGeometry x="1125" y="1137.5" width="120" height="60" as="geometry" />
        </mxCell>
        <mxCell id="QnKmiuLsf_0pgqNiHcF8-97" style="edgeStyle=orthogonalEdgeStyle;rounded=0;orthogonalLoop=1;jettySize=auto;html=1;entryX=0.5;entryY=0;entryDx=0;entryDy=0;" parent="1" source="QnKmiuLsf_0pgqNiHcF8-98" target="QnKmiuLsf_0pgqNiHcF8-74" edge="1">
          <mxGeometry relative="1" as="geometry" />
        </mxCell>
        <mxCell id="QnKmiuLsf_0pgqNiHcF8-98" value="Suivi_APC_2024&lt;br&gt;Suivi_APCI_UNIFITEL" style="rounded=1;whiteSpace=wrap;html=1;fillColor=#d5e8d4;strokeColor=#82b366;" parent="1" vertex="1">
          <mxGeometry x="1325" y="1152.5" width="190" height="60" as="geometry" />
        </mxCell>
        <mxCell id="QnKmiuLsf_0pgqNiHcF8-99" style="edgeStyle=orthogonalEdgeStyle;rounded=0;orthogonalLoop=1;jettySize=auto;html=1;" parent="1" source="QnKmiuLsf_0pgqNiHcF8-100" edge="1">
          <mxGeometry relative="1" as="geometry">
            <mxPoint x="1180" y="1082.5" as="targetPoint" />
          </mxGeometry>
        </mxCell>
        <mxCell id="QnKmiuLsf_0pgqNiHcF8-100" value="+5 min" style="rounded=0;whiteSpace=wrap;html=1;" parent="1" vertex="1">
          <mxGeometry x="1240" y="1072.5" width="60" height="20" as="geometry" />
        </mxCell>
        <mxCell id="QnKmiuLsf_0pgqNiHcF8-101" style="edgeStyle=orthogonalEdgeStyle;rounded=0;orthogonalLoop=1;jettySize=auto;html=1;" parent="1" source="QnKmiuLsf_0pgqNiHcF8-102" edge="1">
          <mxGeometry relative="1" as="geometry">
            <mxPoint x="1420" y="1082.5" as="targetPoint" />
          </mxGeometry>
        </mxCell>
        <mxCell id="QnKmiuLsf_0pgqNiHcF8-102" value="+5 min" style="rounded=0;whiteSpace=wrap;html=1;" parent="1" vertex="1">
          <mxGeometry x="1510" y="1072.5" width="60" height="20" as="geometry" />
        </mxCell>
        <mxCell id="QnKmiuLsf_0pgqNiHcF8-103" style="edgeStyle=orthogonalEdgeStyle;rounded=0;orthogonalLoop=1;jettySize=auto;html=1;exitX=0.5;exitY=1;exitDx=0;exitDy=0;entryX=0.25;entryY=0;entryDx=0;entryDy=0;" parent="1" source="QnKmiuLsf_0pgqNiHcF8-105" target="QnKmiuLsf_0pgqNiHcF8-106" edge="1">
          <mxGeometry relative="1" as="geometry" />
        </mxCell>
        <mxCell id="QnKmiuLsf_0pgqNiHcF8-104" style="edgeStyle=orthogonalEdgeStyle;rounded=0;orthogonalLoop=1;jettySize=auto;html=1;exitX=0.5;exitY=0;exitDx=0;exitDy=0;entryX=0.5;entryY=0;entryDx=0;entryDy=0;" parent="1" target="QnKmiuLsf_0pgqNiHcF8-105" edge="1">
          <mxGeometry relative="1" as="geometry">
            <mxPoint x="645.5882352941176" y="1050" as="sourcePoint" />
          </mxGeometry>
        </mxCell>
        <mxCell id="QnKmiuLsf_0pgqNiHcF8-105" value="&lt;font face=&quot;Calibri, sans-serif&quot;&gt;&lt;span style=&quot;font-size: 14.6667px;&quot;&gt;ADR + UNIFITEL&lt;br&gt;OPERATIONNEL&lt;/span&gt;&lt;/font&gt;" style="ellipse;whiteSpace=wrap;html=1;fillColor=#dae8fc;strokeColor=#6c8ebf;" parent="1" vertex="1">
          <mxGeometry x="590" y="1115" width="110" height="70" as="geometry" />
        </mxCell>
        <mxCell id="QnKmiuLsf_0pgqNiHcF8-106" value="ADR_Synthèse_RC_V6_New_Version" style="rounded=1;whiteSpace=wrap;html=1;fillColor=#d5e8d4;strokeColor=#82b366;" parent="1" vertex="1">
          <mxGeometry x="660" y="1370" width="230" height="90" as="geometry" />
        </mxCell>
        <mxCell id="QnKmiuLsf_0pgqNiHcF8-107" value="programme" style="ellipse;whiteSpace=wrap;html=1;fillColor=#dae8fc;strokeColor=#6c8ebf;" parent="1" vertex="1">
          <mxGeometry x="190" y="650" width="120" height="80" as="geometry" />
        </mxCell>
        <mxCell id="QnKmiuLsf_0pgqNiHcF8-108" value="Suivi&amp;nbsp;" style="rounded=1;whiteSpace=wrap;html=1;fillColor=#d5e8d4;strokeColor=#82b366;" parent="1" vertex="1">
          <mxGeometry x="190" y="750" width="120" height="60" as="geometry" />
        </mxCell>
        <mxCell id="QnKmiuLsf_0pgqNiHcF8-109" value="" style="endArrow=none;html=1;rounded=0;" parent="1" edge="1">
          <mxGeometry width="50" height="50" relative="1" as="geometry">
            <mxPoint x="260" y="1050" as="sourcePoint" />
            <mxPoint x="660" y="1050" as="targetPoint" />
          </mxGeometry>
        </mxCell>
        <mxCell id="QnKmiuLsf_0pgqNiHcF8-110" style="edgeStyle=orthogonalEdgeStyle;rounded=0;orthogonalLoop=1;jettySize=auto;html=1;" parent="1" source="QnKmiuLsf_0pgqNiHcF8-111" edge="1">
          <mxGeometry relative="1" as="geometry">
            <mxPoint x="640" y="1225" as="targetPoint" />
          </mxGeometry>
        </mxCell>
        <mxCell id="QnKmiuLsf_0pgqNiHcF8-111" value="+30 min" style="rounded=0;whiteSpace=wrap;html=1;" parent="1" vertex="1">
          <mxGeometry x="680" y="1215" width="60" height="20" as="geometry" />
        </mxCell>
        <mxCell id="QnKmiuLsf_0pgqNiHcF8-115" style="edgeStyle=orthogonalEdgeStyle;rounded=0;orthogonalLoop=1;jettySize=auto;html=1;" parent="1" target="QnKmiuLsf_0pgqNiHcF8-114" edge="1">
          <mxGeometry relative="1" as="geometry">
            <mxPoint x="750" y="680" as="sourcePoint" />
          </mxGeometry>
        </mxCell>
        <mxCell id="QnKmiuLsf_0pgqNiHcF8-114" value="arret à 17h00" style="rounded=1;whiteSpace=wrap;html=1;" parent="1" vertex="1">
          <mxGeometry x="810" y="720" width="120" height="70" as="geometry" />
        </mxCell>
        <mxCell id="8Lnr_tMbdvoqLlXHLRUx-2" value="" style="edgeStyle=orthogonalEdgeStyle;rounded=0;orthogonalLoop=1;jettySize=auto;html=1;" edge="1" parent="1" source="8Lnr_tMbdvoqLlXHLRUx-3" target="8Lnr_tMbdvoqLlXHLRUx-5">
          <mxGeometry relative="1" as="geometry" />
        </mxCell>
        <mxCell id="8Lnr_tMbdvoqLlXHLRUx-3" value="5h00 Controle donnee decisionnel dispo" style="rounded=1;whiteSpace=wrap;html=1;" vertex="1" parent="1">
          <mxGeometry x="2180" y="870" width="120" height="60" as="geometry" />
        </mxCell>
        <mxCell id="8Lnr_tMbdvoqLlXHLRUx-4" value="" style="edgeStyle=orthogonalEdgeStyle;rounded=0;orthogonalLoop=1;jettySize=auto;html=1;" edge="1" parent="1" source="8Lnr_tMbdvoqLlXHLRUx-5">
          <mxGeometry relative="1" as="geometry">
            <mxPoint x="2240" y="1120" as="targetPoint" />
          </mxGeometry>
        </mxCell>
        <mxCell id="8Lnr_tMbdvoqLlXHLRUx-5" value="Si OUI" style="whiteSpace=wrap;html=1;rounded=1;" vertex="1" parent="1">
          <mxGeometry x="2180" y="1000" width="120" height="60" as="geometry" />
        </mxCell>
        <mxCell id="8Lnr_tMbdvoqLlXHLRUx-6" value="" style="edgeStyle=orthogonalEdgeStyle;rounded=0;orthogonalLoop=1;jettySize=auto;html=1;" edge="1" parent="1" target="8Lnr_tMbdvoqLlXHLRUx-12">
          <mxGeometry relative="1" as="geometry">
            <mxPoint x="2240" y="1180" as="sourcePoint" />
          </mxGeometry>
        </mxCell>
        <mxCell id="8Lnr_tMbdvoqLlXHLRUx-7" style="edgeStyle=orthogonalEdgeStyle;rounded=0;orthogonalLoop=1;jettySize=auto;html=1;exitX=0.5;exitY=1;exitDx=0;exitDy=0;entryX=0.5;entryY=0;entryDx=0;entryDy=0;" edge="1" parent="1" source="8Lnr_tMbdvoqLlXHLRUx-3" target="8Lnr_tMbdvoqLlXHLRUx-9">
          <mxGeometry relative="1" as="geometry" />
        </mxCell>
        <mxCell id="8Lnr_tMbdvoqLlXHLRUx-8" style="edgeStyle=orthogonalEdgeStyle;rounded=0;orthogonalLoop=1;jettySize=auto;html=1;exitX=1;exitY=0.5;exitDx=0;exitDy=0;entryX=1;entryY=0.5;entryDx=0;entryDy=0;" edge="1" parent="1" source="8Lnr_tMbdvoqLlXHLRUx-9" target="8Lnr_tMbdvoqLlXHLRUx-3">
          <mxGeometry relative="1" as="geometry" />
        </mxCell>
        <mxCell id="8Lnr_tMbdvoqLlXHLRUx-9" value="Si non" style="rounded=1;whiteSpace=wrap;html=1;" vertex="1" parent="1">
          <mxGeometry x="2380" y="970" width="120" height="60" as="geometry" />
        </mxCell>
        <mxCell id="8Lnr_tMbdvoqLlXHLRUx-10" style="edgeStyle=orthogonalEdgeStyle;rounded=0;orthogonalLoop=1;jettySize=auto;html=1;" edge="1" parent="1" source="8Lnr_tMbdvoqLlXHLRUx-11">
          <mxGeometry relative="1" as="geometry">
            <mxPoint x="2520" y="930" as="targetPoint" />
          </mxGeometry>
        </mxCell>
        <mxCell id="8Lnr_tMbdvoqLlXHLRUx-11" value="+15 min" style="rounded=0;whiteSpace=wrap;html=1;" vertex="1" parent="1">
          <mxGeometry x="2560" y="920" width="70" height="20" as="geometry" />
        </mxCell>
        <mxCell id="8Lnr_tMbdvoqLlXHLRUx-12" value="&lt;span dir=&quot;ltr&quot; class=&quot;ui-provider a b c d e f g h i j k l m n o p q r s t u v w x y z ab ac ae af ag ah ai aj ak&quot;&gt;Q_SUIVI_ROT_REC_IMX&lt;/span&gt;" style="rounded=1;whiteSpace=wrap;html=1;fillColor=#d5e8d4;strokeColor=#82b366;" vertex="1" parent="1">
          <mxGeometry x="2310" y="1220" width="180" height="50" as="geometry" />
        </mxCell>
        <mxCell id="8Lnr_tMbdvoqLlXHLRUx-13" style="edgeStyle=orthogonalEdgeStyle;rounded=0;orthogonalLoop=1;jettySize=auto;html=1;" edge="1" parent="1" source="8Lnr_tMbdvoqLlXHLRUx-14">
          <mxGeometry relative="1" as="geometry">
            <mxPoint x="2240" y="1210" as="targetPoint" />
            <Array as="points">
              <mxPoint x="2155" y="1215" />
              <mxPoint x="2155" y="1211" />
            </Array>
          </mxGeometry>
        </mxCell>
        <mxCell id="8Lnr_tMbdvoqLlXHLRUx-14" value="entre 1h30 et 2h00" style="rounded=0;whiteSpace=wrap;html=1;" vertex="1" parent="1">
          <mxGeometry x="2010" y="1200" width="60" height="30" as="geometry" />
        </mxCell>
        <mxCell id="8Lnr_tMbdvoqLlXHLRUx-15" value="Super Suivi Issaka" style="whiteSpace=wrap;html=1;rounded=1;arcSize=33;" vertex="1" parent="1">
          <mxGeometry x="2530" y="1670" width="120" height="60" as="geometry" />
        </mxCell>
        <mxCell id="8Lnr_tMbdvoqLlXHLRUx-16" style="edgeStyle=orthogonalEdgeStyle;rounded=0;orthogonalLoop=1;jettySize=auto;html=1;" edge="1" parent="1" source="8Lnr_tMbdvoqLlXHLRUx-17">
          <mxGeometry relative="1" as="geometry">
            <mxPoint x="1910" y="1495" as="targetPoint" />
          </mxGeometry>
        </mxCell>
        <mxCell id="8Lnr_tMbdvoqLlXHLRUx-17" value="+30 min" style="rounded=0;whiteSpace=wrap;html=1;" vertex="1" parent="1">
          <mxGeometry x="1820" y="1485" width="50" height="20" as="geometry" />
        </mxCell>
        <mxCell id="8Lnr_tMbdvoqLlXHLRUx-18" style="edgeStyle=orthogonalEdgeStyle;rounded=0;orthogonalLoop=1;jettySize=auto;html=1;" edge="1" parent="1" source="8Lnr_tMbdvoqLlXHLRUx-19">
          <mxGeometry relative="1" as="geometry">
            <mxPoint x="1730" y="1490" as="targetPoint" />
            <mxPoint x="1610" y="1490" as="sourcePoint" />
          </mxGeometry>
        </mxCell>
        <mxCell id="8Lnr_tMbdvoqLlXHLRUx-20" style="edgeStyle=orthogonalEdgeStyle;rounded=0;orthogonalLoop=1;jettySize=auto;html=1;" edge="1" parent="1" source="8Lnr_tMbdvoqLlXHLRUx-22">
          <mxGeometry relative="1" as="geometry">
            <mxPoint x="2240" y="1320" as="targetPoint" />
          </mxGeometry>
        </mxCell>
        <mxCell id="8Lnr_tMbdvoqLlXHLRUx-22" value="Rotation recouvremment" style="ellipse;whiteSpace=wrap;html=1;fillColor=#dae8fc;strokeColor=#6c8ebf;" vertex="1" parent="1">
          <mxGeometry x="2155" y="1110" width="170" height="90" as="geometry" />
        </mxCell>
        <mxCell id="8Lnr_tMbdvoqLlXHLRUx-23" value="" style="edgeStyle=orthogonalEdgeStyle;rounded=0;orthogonalLoop=1;jettySize=auto;html=1;" edge="1" parent="1" source="8Lnr_tMbdvoqLlXHLRUx-25" target="8Lnr_tMbdvoqLlXHLRUx-26">
          <mxGeometry relative="1" as="geometry" />
        </mxCell>
        <mxCell id="8Lnr_tMbdvoqLlXHLRUx-24" style="edgeStyle=orthogonalEdgeStyle;rounded=0;orthogonalLoop=1;jettySize=auto;html=1;exitX=0.5;exitY=0;exitDx=0;exitDy=0;entryX=0.5;entryY=0;entryDx=0;entryDy=0;" edge="1" parent="1" target="8Lnr_tMbdvoqLlXHLRUx-25">
          <mxGeometry relative="1" as="geometry">
            <mxPoint x="1729.7058823529412" y="1320" as="sourcePoint" />
          </mxGeometry>
        </mxCell>
        <mxCell id="8Lnr_tMbdvoqLlXHLRUx-25" value="Bucket" style="ellipse;whiteSpace=wrap;html=1;fillColor=#dae8fc;strokeColor=#6c8ebf;" vertex="1" parent="1">
          <mxGeometry x="1670" y="1380" width="120" height="80" as="geometry" />
        </mxCell>
        <mxCell id="8Lnr_tMbdvoqLlXHLRUx-26" value="&lt;font face=&quot;Calibri, sans-serif&quot;&gt;&lt;span style=&quot;font-size: 14.6667px;&quot;&gt;Suivi par bucket - stock AAAAMM&lt;/span&gt;&lt;/font&gt;" style="rounded=1;whiteSpace=wrap;html=1;fillColor=#d5e8d4;strokeColor=#82b366;" vertex="1" parent="1">
          <mxGeometry x="1665" y="1560" width="130" height="60" as="geometry" />
        </mxCell>
        <mxCell id="8Lnr_tMbdvoqLlXHLRUx-27" style="edgeStyle=orthogonalEdgeStyle;rounded=0;orthogonalLoop=1;jettySize=auto;html=1;entryX=0.5;entryY=0;entryDx=0;entryDy=0;" edge="1" parent="1" source="8Lnr_tMbdvoqLlXHLRUx-29" target="8Lnr_tMbdvoqLlXHLRUx-30">
          <mxGeometry relative="1" as="geometry" />
        </mxCell>
        <mxCell id="8Lnr_tMbdvoqLlXHLRUx-28" style="edgeStyle=orthogonalEdgeStyle;rounded=0;orthogonalLoop=1;jettySize=auto;html=1;exitX=0.5;exitY=0;exitDx=0;exitDy=0;entryX=0.5;entryY=0;entryDx=0;entryDy=0;" edge="1" parent="1" target="8Lnr_tMbdvoqLlXHLRUx-29">
          <mxGeometry relative="1" as="geometry">
            <mxPoint x="1915.588235294118" y="1320" as="sourcePoint" />
          </mxGeometry>
        </mxCell>
        <mxCell id="8Lnr_tMbdvoqLlXHLRUx-29" value="&lt;p class=&quot;MsoListParagraph&quot;&gt;ADR OPERATIONNEL&lt;/p&gt;" style="ellipse;whiteSpace=wrap;html=1;fillColor=#dae8fc;strokeColor=#6c8ebf;" vertex="1" parent="1">
          <mxGeometry x="1860" y="1380" width="110" height="80" as="geometry" />
        </mxCell>
        <mxCell id="8Lnr_tMbdvoqLlXHLRUx-30" value="&lt;div&gt;ADR_Synthèse_RC_UNIF_V6_New_Version&lt;br&gt;&lt;/div&gt;" style="rounded=1;whiteSpace=wrap;html=1;fillColor=#d5e8d4;strokeColor=#82b366;" vertex="1" parent="1">
          <mxGeometry x="1810" y="1650" width="255" height="70" as="geometry" />
        </mxCell>
        <mxCell id="8Lnr_tMbdvoqLlXHLRUx-32" value="" style="edgeStyle=orthogonalEdgeStyle;rounded=0;orthogonalLoop=1;jettySize=auto;html=1;" edge="1" parent="1" source="8Lnr_tMbdvoqLlXHLRUx-34" target="8Lnr_tMbdvoqLlXHLRUx-40">
          <mxGeometry relative="1" as="geometry" />
        </mxCell>
        <mxCell id="8Lnr_tMbdvoqLlXHLRUx-57" style="edgeStyle=orthogonalEdgeStyle;rounded=0;orthogonalLoop=1;jettySize=auto;html=1;exitX=0.5;exitY=0;exitDx=0;exitDy=0;entryX=0.5;entryY=0;entryDx=0;entryDy=0;" edge="1" parent="1" target="8Lnr_tMbdvoqLlXHLRUx-34">
          <mxGeometry relative="1" as="geometry">
            <mxPoint x="2590" y="1320" as="sourcePoint" />
          </mxGeometry>
        </mxCell>
        <mxCell id="8Lnr_tMbdvoqLlXHLRUx-34" value="&lt;span style=&quot;text-wrap: nowrap;&quot;&gt;APC&lt;/span&gt;" style="ellipse;whiteSpace=wrap;html=1;fillColor=#dae8fc;strokeColor=#6c8ebf;" vertex="1" parent="1">
          <mxGeometry x="2480" y="1380" width="220" height="90" as="geometry" />
        </mxCell>
        <mxCell id="8Lnr_tMbdvoqLlXHLRUx-35" value="" style="edgeStyle=orthogonalEdgeStyle;rounded=0;orthogonalLoop=1;jettySize=auto;html=1;" edge="1" parent="1" target="8Lnr_tMbdvoqLlXHLRUx-38">
          <mxGeometry relative="1" as="geometry">
            <mxPoint x="2340" y="1460" as="sourcePoint" />
            <Array as="points">
              <mxPoint x="2341" y="1460" />
              <mxPoint x="2341" y="1535" />
              <mxPoint x="2340" y="1535" />
            </Array>
          </mxGeometry>
        </mxCell>
        <mxCell id="8Lnr_tMbdvoqLlXHLRUx-56" style="edgeStyle=orthogonalEdgeStyle;rounded=0;orthogonalLoop=1;jettySize=auto;html=1;" edge="1" parent="1" target="8Lnr_tMbdvoqLlXHLRUx-37">
          <mxGeometry relative="1" as="geometry">
            <mxPoint x="2345" y="1320" as="sourcePoint" />
          </mxGeometry>
        </mxCell>
        <mxCell id="8Lnr_tMbdvoqLlXHLRUx-37" value="&lt;span style=&quot;text-wrap: nowrap;&quot;&gt;ADR&lt;/span&gt;" style="ellipse;whiteSpace=wrap;html=1;fillColor=#dae8fc;strokeColor=#6c8ebf;" vertex="1" parent="1">
          <mxGeometry x="2250" y="1385" width="190" height="80" as="geometry" />
        </mxCell>
        <mxCell id="8Lnr_tMbdvoqLlXHLRUx-38" value="ACC_STT_RTD_PAL&lt;br&gt;ACC_STT_PAL_UNIF" style="rounded=1;whiteSpace=wrap;html=1;fillColor=#d5e8d4;strokeColor=#82b366;" vertex="1" parent="1">
          <mxGeometry x="2280" y="1550" width="120" height="60" as="geometry" />
        </mxCell>
        <mxCell id="8Lnr_tMbdvoqLlXHLRUx-39" style="edgeStyle=orthogonalEdgeStyle;rounded=0;orthogonalLoop=1;jettySize=auto;html=1;entryX=0.5;entryY=0;entryDx=0;entryDy=0;" edge="1" parent="1" source="8Lnr_tMbdvoqLlXHLRUx-40" target="8Lnr_tMbdvoqLlXHLRUx-15">
          <mxGeometry relative="1" as="geometry" />
        </mxCell>
        <mxCell id="8Lnr_tMbdvoqLlXHLRUx-40" value="Suivi_APC_2024&lt;br&gt;Suivi_APCI_UNIFITEL" style="rounded=1;whiteSpace=wrap;html=1;fillColor=#d5e8d4;strokeColor=#82b366;" vertex="1" parent="1">
          <mxGeometry x="2495" y="1550" width="190" height="60" as="geometry" />
        </mxCell>
        <mxCell id="8Lnr_tMbdvoqLlXHLRUx-41" style="edgeStyle=orthogonalEdgeStyle;rounded=0;orthogonalLoop=1;jettySize=auto;html=1;" edge="1" parent="1" source="8Lnr_tMbdvoqLlXHLRUx-42">
          <mxGeometry relative="1" as="geometry">
            <mxPoint x="2335" y="1495" as="targetPoint" />
          </mxGeometry>
        </mxCell>
        <mxCell id="8Lnr_tMbdvoqLlXHLRUx-42" value="+5 min" style="rounded=0;whiteSpace=wrap;html=1;" vertex="1" parent="1">
          <mxGeometry x="2395" y="1485" width="60" height="20" as="geometry" />
        </mxCell>
        <mxCell id="8Lnr_tMbdvoqLlXHLRUx-43" style="edgeStyle=orthogonalEdgeStyle;rounded=0;orthogonalLoop=1;jettySize=auto;html=1;" edge="1" parent="1" source="8Lnr_tMbdvoqLlXHLRUx-44">
          <mxGeometry relative="1" as="geometry">
            <mxPoint x="2590" y="1480" as="targetPoint" />
          </mxGeometry>
        </mxCell>
        <mxCell id="8Lnr_tMbdvoqLlXHLRUx-44" value="+5 min" style="rounded=0;whiteSpace=wrap;html=1;" vertex="1" parent="1">
          <mxGeometry x="2680" y="1470" width="60" height="20" as="geometry" />
        </mxCell>
        <mxCell id="8Lnr_tMbdvoqLlXHLRUx-45" style="edgeStyle=orthogonalEdgeStyle;rounded=0;orthogonalLoop=1;jettySize=auto;html=1;exitX=0.5;exitY=1;exitDx=0;exitDy=0;entryX=0.25;entryY=0;entryDx=0;entryDy=0;" edge="1" parent="1" source="8Lnr_tMbdvoqLlXHLRUx-47" target="8Lnr_tMbdvoqLlXHLRUx-48">
          <mxGeometry relative="1" as="geometry" />
        </mxCell>
        <mxCell id="8Lnr_tMbdvoqLlXHLRUx-46" style="edgeStyle=orthogonalEdgeStyle;rounded=0;orthogonalLoop=1;jettySize=auto;html=1;exitX=0.5;exitY=0;exitDx=0;exitDy=0;entryX=0.5;entryY=0;entryDx=0;entryDy=0;" edge="1" parent="1" target="8Lnr_tMbdvoqLlXHLRUx-47">
          <mxGeometry relative="1" as="geometry">
            <mxPoint x="2095.5882352941176" y="1320" as="sourcePoint" />
          </mxGeometry>
        </mxCell>
        <mxCell id="8Lnr_tMbdvoqLlXHLRUx-47" value="&lt;font face=&quot;Calibri, sans-serif&quot;&gt;&lt;span style=&quot;font-size: 14.6667px;&quot;&gt;ADR + UNIFITEL&lt;br&gt;OPERATIONNEL&lt;/span&gt;&lt;/font&gt;" style="ellipse;whiteSpace=wrap;html=1;fillColor=#dae8fc;strokeColor=#6c8ebf;" vertex="1" parent="1">
          <mxGeometry x="2040" y="1385" width="110" height="70" as="geometry" />
        </mxCell>
        <mxCell id="8Lnr_tMbdvoqLlXHLRUx-48" value="ADR_Synthèse_RC_V6_New_Version" style="rounded=1;whiteSpace=wrap;html=1;fillColor=#d5e8d4;strokeColor=#82b366;" vertex="1" parent="1">
          <mxGeometry x="2110" y="1640" width="230" height="90" as="geometry" />
        </mxCell>
        <mxCell id="8Lnr_tMbdvoqLlXHLRUx-49" value="programme" style="ellipse;whiteSpace=wrap;html=1;fillColor=#dae8fc;strokeColor=#6c8ebf;" vertex="1" parent="1">
          <mxGeometry x="1960" y="920" width="120" height="80" as="geometry" />
        </mxCell>
        <mxCell id="8Lnr_tMbdvoqLlXHLRUx-50" value="Suivi&amp;nbsp;" style="rounded=1;whiteSpace=wrap;html=1;fillColor=#d5e8d4;strokeColor=#82b366;" vertex="1" parent="1">
          <mxGeometry x="1960" y="1020" width="120" height="60" as="geometry" />
        </mxCell>
        <mxCell id="8Lnr_tMbdvoqLlXHLRUx-51" value="" style="endArrow=none;html=1;rounded=0;" edge="1" parent="1">
          <mxGeometry width="50" height="50" relative="1" as="geometry">
            <mxPoint x="1700" y="1320" as="sourcePoint" />
            <mxPoint x="2920" y="1320" as="targetPoint" />
          </mxGeometry>
        </mxCell>
        <mxCell id="8Lnr_tMbdvoqLlXHLRUx-52" style="edgeStyle=orthogonalEdgeStyle;rounded=0;orthogonalLoop=1;jettySize=auto;html=1;" edge="1" parent="1" source="8Lnr_tMbdvoqLlXHLRUx-53">
          <mxGeometry relative="1" as="geometry">
            <mxPoint x="2090" y="1495" as="targetPoint" />
          </mxGeometry>
        </mxCell>
        <mxCell id="8Lnr_tMbdvoqLlXHLRUx-53" value="+30 min" style="rounded=0;whiteSpace=wrap;html=1;" vertex="1" parent="1">
          <mxGeometry x="2130" y="1485" width="60" height="20" as="geometry" />
        </mxCell>
        <mxCell id="8Lnr_tMbdvoqLlXHLRUx-54" style="edgeStyle=orthogonalEdgeStyle;rounded=0;orthogonalLoop=1;jettySize=auto;html=1;" edge="1" parent="1" target="8Lnr_tMbdvoqLlXHLRUx-55">
          <mxGeometry relative="1" as="geometry">
            <mxPoint x="2520" y="950" as="sourcePoint" />
          </mxGeometry>
        </mxCell>
        <mxCell id="8Lnr_tMbdvoqLlXHLRUx-55" value="arret à 17H00" style="rounded=1;whiteSpace=wrap;html=1;" vertex="1" parent="1">
          <mxGeometry x="2580" y="990" width="120" height="70" as="geometry" />
        </mxCell>
        <mxCell id="8Lnr_tMbdvoqLlXHLRUx-59" style="edgeStyle=orthogonalEdgeStyle;rounded=0;orthogonalLoop=1;jettySize=auto;html=1;" edge="1" parent="1" target="8Lnr_tMbdvoqLlXHLRUx-58">
          <mxGeometry relative="1" as="geometry">
            <mxPoint x="2880" y="1320" as="sourcePoint" />
          </mxGeometry>
        </mxCell>
        <mxCell id="8Lnr_tMbdvoqLlXHLRUx-60" style="edgeStyle=orthogonalEdgeStyle;rounded=0;orthogonalLoop=1;jettySize=auto;html=1;exitX=0.5;exitY=1;exitDx=0;exitDy=0;" edge="1" parent="1" source="8Lnr_tMbdvoqLlXHLRUx-58">
          <mxGeometry relative="1" as="geometry">
            <mxPoint x="2880" y="1570" as="targetPoint" />
          </mxGeometry>
        </mxCell>
        <mxCell id="8Lnr_tMbdvoqLlXHLRUx-58" value="&lt;span style=&quot;text-wrap: nowrap;&quot;&gt;ADR_PROMESSES&lt;/span&gt;" style="ellipse;whiteSpace=wrap;html=1;fillColor=#dae8fc;strokeColor=#6c8ebf;" vertex="1" parent="1">
          <mxGeometry x="2770" y="1380" width="220" height="90" as="geometry" />
        </mxCell>
        <mxCell id="8Lnr_tMbdvoqLlXHLRUx-61" value="Suivi_prommesses_perf_auto" style="rounded=1;whiteSpace=wrap;html=1;fillColor=#d5e8d4;strokeColor=#82b366;" vertex="1" parent="1">
          <mxGeometry x="2785" y="1570" width="190" height="60" as="geometry" />
        </mxCell>
        <mxCell id="8Lnr_tMbdvoqLlXHLRUx-70" style="edgeStyle=orthogonalEdgeStyle;rounded=0;orthogonalLoop=1;jettySize=auto;html=1;" edge="1" parent="1" source="8Lnr_tMbdvoqLlXHLRUx-62" target="QnKmiuLsf_0pgqNiHcF8-89">
          <mxGeometry relative="1" as="geometry" />
        </mxCell>
        <mxCell id="8Lnr_tMbdvoqLlXHLRUx-62" value="Batch periodique 10h00" style="rounded=0;whiteSpace=wrap;html=1;" vertex="1" parent="1">
          <mxGeometry x="860" y="852.5" width="120" height="60" as="geometry" />
        </mxCell>
        <mxCell id="8Lnr_tMbdvoqLlXHLRUx-63" style="edgeStyle=orthogonalEdgeStyle;rounded=0;orthogonalLoop=1;jettySize=auto;html=1;exitX=0.5;exitY=1;exitDx=0;exitDy=0;" edge="1" parent="1" source="8Lnr_tMbdvoqLlXHLRUx-64">
          <mxGeometry relative="1" as="geometry">
            <mxPoint x="920" y="1147.5" as="targetPoint" />
          </mxGeometry>
        </mxCell>
        <mxCell id="8Lnr_tMbdvoqLlXHLRUx-66" style="edgeStyle=orthogonalEdgeStyle;rounded=0;orthogonalLoop=1;jettySize=auto;html=1;exitX=0.5;exitY=1;exitDx=0;exitDy=0;" edge="1" parent="1" source="8Lnr_tMbdvoqLlXHLRUx-62" target="8Lnr_tMbdvoqLlXHLRUx-64">
          <mxGeometry relative="1" as="geometry" />
        </mxCell>
        <mxCell id="8Lnr_tMbdvoqLlXHLRUx-64" value="&lt;span style=&quot;text-wrap: nowrap;&quot;&gt;ADR_PROMESSES&lt;/span&gt;" style="ellipse;whiteSpace=wrap;html=1;fillColor=#dae8fc;strokeColor=#6c8ebf;" vertex="1" parent="1">
          <mxGeometry x="810" y="957.5" width="220" height="90" as="geometry" />
        </mxCell>
        <mxCell id="8Lnr_tMbdvoqLlXHLRUx-65" value="Suivi_prommesses_perf_auto" style="rounded=1;whiteSpace=wrap;html=1;fillColor=#d5e8d4;strokeColor=#82b366;" vertex="1" parent="1">
          <mxGeometry x="825" y="1147.5" width="190" height="60" as="geometry" />
        </mxCell>
        <mxCell id="8Lnr_tMbdvoqLlXHLRUx-74" style="edgeStyle=orthogonalEdgeStyle;rounded=0;orthogonalLoop=1;jettySize=auto;html=1;exitX=0;exitY=0.25;exitDx=0;exitDy=0;" edge="1" parent="1" source="8Lnr_tMbdvoqLlXHLRUx-73">
          <mxGeometry relative="1" as="geometry">
            <mxPoint x="909.9999999999995" y="1077.0588235294117" as="targetPoint" />
            <Array as="points">
              <mxPoint x="930" y="1077" />
              <mxPoint x="930" y="1077" />
            </Array>
          </mxGeometry>
        </mxCell>
        <mxCell id="8Lnr_tMbdvoqLlXHLRUx-73" value="+5 min" style="rounded=0;whiteSpace=wrap;html=1;" vertex="1" parent="1">
          <mxGeometry x="965" y="1072.5" width="60" height="20" as="geometry" />
        </mxCell>
        <mxCell id="8Lnr_tMbdvoqLlXHLRUx-76" style="edgeStyle=orthogonalEdgeStyle;rounded=0;orthogonalLoop=1;jettySize=auto;html=1;" edge="1" parent="1" source="8Lnr_tMbdvoqLlXHLRUx-75">
          <mxGeometry relative="1" as="geometry">
            <mxPoint x="2880" y="1500" as="targetPoint" />
          </mxGeometry>
        </mxCell>
        <mxCell id="8Lnr_tMbdvoqLlXHLRUx-75" value="+5 min" style="rounded=0;whiteSpace=wrap;html=1;" vertex="1" parent="1">
          <mxGeometry x="2950" y="1490" width="50" height="20" as="geometry" />
        </mxCell>
        <mxCell id="8Lnr_tMbdvoqLlXHLRUx-19" value="+5 min" style="rounded=0;whiteSpace=wrap;html=1;" vertex="1" parent="1">
          <mxGeometry x="1630" y="1480" width="60" height="20" as="geometry" />
        </mxCell>
      </root>
    </mxGraphModel>
  </diagram>
</mxfile>
